<svg id="Ebene_1" data-name="Ebene 1" xmlns="http://www.w3.org/2000/svg" width="100" height="18" viewBox="0 0 100 18">
  <defs>
    <style>
      .cls-1 {
        fill: #099;
      }
    </style>
  </defs>
  <title>icon_header_siemens</title>
  <path class="cls-1" d="M.33,16.74V13.66a15.37,15.37,0,0,0,4.61.85c1.78,0,2.67-.47,2.67-1.42a1.11,1.11,0,0,0-.39-.86,8.18,8.18,0,0,0-2.09-1.08A16.28,16.28,0,0,1,1.42,9.26,3.81,3.81,0,0,1,0,6.19a4.07,4.07,0,0,1,1.84-3.6,8,8,0,0,1,4.47-1.1,16.55,16.55,0,0,1,4.36.57V5a11.89,11.89,0,0,0-4.1-.88c-1.6,0-2.4.46-2.4,1.37a1,1,0,0,0,.53.88,21.67,21.67,0,0,0,2.33,1.1,13.12,13.12,0,0,1,3.79,2.15,3.73,3.73,0,0,1,1,2.76A4.25,4.25,0,0,1,9.7,16.3a8.89,8.89,0,0,1-4.51,1A20.13,20.13,0,0,1,.33,16.74ZM14.11,17V1.75h4.42V17Zm8.13,0V1.75H33.33V4.53H26.51V8h5.93v2.52H26.51v3.58h7V17Zm13.89,0V1.75h5.56l3.82,9.56,4-9.56h5.3V17H50.6V6.57L46.17,17.14H43.51L39.2,6.57V17ZM58.5,17V1.75H69.58V4.53H62.76V8H68.7v2.52H62.76v3.58h7V17Zm13.87,0V1.75h5l5.25,9.9V1.75h3V17H80.84L75.42,6.93V17Zm16.1-.25V13.66a15.43,15.43,0,0,0,4.61.85c1.78,0,2.67-.47,2.67-1.42a1.11,1.11,0,0,0-.39-.86,8.44,8.44,0,0,0-2.08-1.08,16.06,16.06,0,0,1-3.73-1.89,3.84,3.84,0,0,1-1.4-3.07A4.09,4.09,0,0,1,90,2.59a8,8,0,0,1,4.48-1.1,16.48,16.48,0,0,1,4.35.57V5a11.7,11.7,0,0,0-4.09-.88c-1.6,0-2.4.46-2.4,1.37a1,1,0,0,0,.52.88,22.25,22.25,0,0,0,2.34,1.1A13.27,13.27,0,0,1,99,9.62a3.72,3.72,0,0,1,1,2.76,4.25,4.25,0,0,1-2.15,3.92,9,9,0,0,1-4.52,1A20.13,20.13,0,0,1,88.47,16.74Z"/>
</svg>
