<svg id="icons" xmlns="http://www.w3.org/2000/svg" viewBox="0 0 32 32"><title>ICO_WEB</title><path d="M16,2A14,14,0,1,0,30,16,14,14,0,0,0,16,2Z" fill="#df0000"/><path d="M21.88,24.34,16,19.23l-5.88,5.11L7.66,21.88,12.77,16,7.66,10.12l2.46-2.46L16,12.77l5.88-5.11,2.46,2.46L19.23,16l5.11,5.88ZM16,18.57l5.85,5.09,1.81-1.81L18.57,16l5.09-5.85L21.85,8.34,16,13.43,10.15,8.34,8.34,10.15,13.43,16,8.34,21.85l1.81,1.81Z" fill="#df0000"/><path d="M16,18.57l5.85,5.09,1.81-1.81L18.57,16l5.09-5.85L21.85,8.34,16,13.43,10.15,8.34,8.34,10.15,13.43,16,8.34,21.85l1.81,1.81Z" fill="#fff"/></svg>