<?xml version="1.0" encoding="iso-8859-1"?>
<!-- Generator: Adobe Illustrator 19.0.0, SVG Export Plug-In . SVG Version: 6.00 Build 0)  -->
<svg version="1.1" id="Layer_1" xmlns="http://www.w3.org/2000/svg" xmlns:xlink="http://www.w3.org/1999/xlink" x="0px" y="0px"
	 viewBox="0 0 347.519 347.519" style="enable-background:new 0 0 347.519 347.519;" xml:space="preserve">
<g id="XMLID_239_">
	<path id="XMLID_240_" style="fill:#FFA250;" d="M323.716,286.313c0,29.025-23.613,52.643-52.644,52.643H76.447
		c-29.031,0-52.648-23.617-52.648-52.643V122.747c0-0.062-0.007-0.12-0.007-0.183c-0.004-0.116-0.008-0.236-0.021-0.352
		c-0.008-0.099-0.017-0.198-0.029-0.298c-0.017-0.12-0.037-0.237-0.063-0.357c-0.016-0.096-0.033-0.194-0.058-0.29
		c-0.029-0.117-0.062-0.228-0.094-0.344c-0.03-0.095-0.058-0.195-0.091-0.291c-0.037-0.104-0.08-0.207-0.121-0.307
		c-0.046-0.108-0.087-0.211-0.133-0.311c-0.041-0.083-0.091-0.166-0.133-0.248c-0.062-0.117-0.12-0.232-0.186-0.345
		c-0.058-0.094-0.108-0.153-0.15-0.22c-0.074-0.107-0.145-0.22-0.224-0.323c-0.083-0.108-0.17-0.204-0.257-0.307
		c-0.054-0.063-0.108-0.128-0.166-0.195c-0.154-0.161-0.315-0.315-0.482-0.456C7.862,106.157,0,88.972,0,70.772
		C0,36.47,27.907,8.563,62.209,8.563H285.31c34.303,0,62.209,27.907,62.209,62.209c0,18.199-7.862,35.38-21.574,47.135
		c-0.34,0.29-0.65,0.622-0.928,0.986c-0.054,0.067-0.095,0.137-0.144,0.208c-0.067,0.096-0.137,0.19-0.204,0.294
		c-0.008,0.013-0.016,0.029-0.024,0.046c-0.05,0.079-0.091,0.166-0.137,0.248c-0.063,0.117-0.124,0.228-0.183,0.345
		c-0.033,0.074-0.063,0.153-0.095,0.228c-0.058,0.133-0.111,0.261-0.157,0.394c-0.025,0.07-0.046,0.14-0.067,0.211
		c-0.046,0.145-0.083,0.285-0.12,0.431c-0.017,0.07-0.029,0.141-0.041,0.215c-0.03,0.145-0.054,0.291-0.071,0.435
		c-0.012,0.075-0.02,0.15-0.024,0.228c-0.013,0.145-0.021,0.286-0.025,0.431c0,0.05-0.007,0.091-0.007,0.141v163.565H323.716z"/>
	<g id="XMLID_241_">
		<circle id="XMLID_242_" style="fill:#FFFEB9;" cx="85.558" cy="250.967" r="27.725"/>
		<circle id="XMLID_243_" style="fill:#FFFEB9;" cx="108.856" cy="185.112" r="18.136"/>
		<circle id="XMLID_244_" style="fill:#FFFEB9;" cx="154.51" cy="246.675" r="19.25"/>
	</g>
</g>
<g>
</g>
<g>
</g>
<g>
</g>
<g>
</g>
<g>
</g>
<g>
</g>
<g>
</g>
<g>
</g>
<g>
</g>
<g>
</g>
<g>
</g>
<g>
</g>
<g>
</g>
<g>
</g>
<g>
</g>
</svg>
