<?xml version="1.0" encoding="iso-8859-1"?>
<!-- Generator: Adobe Illustrator 19.0.0, SVG Export Plug-In . SVG Version: 6.00 Build 0)  -->
<svg version="1.1" id="Layer_1" xmlns="http://www.w3.org/2000/svg" xmlns:xlink="http://www.w3.org/1999/xlink" x="0px" y="0px"
	 viewBox="0 0 512 512" style="enable-background:new 0 0 512 512;" xml:space="preserve">
<path style="fill:#F7B239;" d="M506.326,320.026c-15.179-25.883-34.268-49.205-56.437-69.147l8.743-16.378
	c-29.966-29.274-66.241-52.1-106.587-66.264c-2.042-0.715-4.083-1.407-6.136-2.076l6.136-20.704
	c-30.058-10.542-62.377-16.286-96.045-16.286s-65.998,5.744-96.045,16.286l6.136,20.704l0,0c-2.053,0.669-4.106,1.361-6.136,2.076
	c-6.298,2.215-12.492,4.638-18.582,7.255c-32.942,14.187-62.723,34.303-88.006,59.009l8.743,16.378
	c-5.248,4.717-10.323,9.631-15.214,14.718c-15.779,16.413-29.631,34.672-41.223,54.43C1.869,326.52,0,333.751,0,340.96
	c0,9.17,3.022,18.305,8.939,25.836c14.556,18.547,41.661,21.5,59.632,6.252c8.109-6.863,16.586-13.299,25.421-19.25
	c5.629-3.806,11.396-7.416,17.301-10.819c15.387-8.858,31.661-16.379,48.663-22.342c7.336-2.571,14.798-4.856,22.388-6.84
	c8.466-2.226,17.094-4.06,25.848-5.513l0,0c15.548-2.595,31.523-3.933,47.809-3.933s32.261,1.338,47.809,3.933
	c16.598,2.745,32.722,6.909,48.236,12.353c16.99,5.963,33.264,13.483,48.651,22.342c15.156,8.754,29.458,18.824,42.723,30.07
	c7.774,6.586,17.255,9.78,26.678,9.78c12.388,0,24.706-5.502,32.965-16.031C513.616,353.347,514.977,334.779,506.326,320.026z"/>
<g>
	<path style="fill:#E09B2D;" d="M111.293,342.978c-5.905,3.403-11.673,7.013-17.301,10.819L48.27,268.18l-1.373-2.584
		c4.89-5.087,9.966-10,15.214-14.718L111.293,342.978z"/>
	<path style="fill:#E09B2D;" d="M208.192,308.284c-8.754,1.454-17.382,3.288-25.848,5.513l-40.093-135.33l-0.877-2.976
		c6.09-2.618,12.284-5.04,18.582-7.255c2.03-0.715,4.083-1.407,6.136-2.076L208.192,308.284z"/>
	<path style="fill:#E09B2D;" d="M400.708,342.978c5.905,3.403,11.673,7.013,17.301,10.819l45.721-85.617l1.373-2.584
		c-4.89-5.087-9.966-10-15.214-14.718L400.708,342.978z"/>
	<path style="fill:#E09B2D;" d="M303.81,308.284c8.754,1.454,17.382,3.288,25.848,5.513l40.093-135.33l0.877-2.976
		c-6.09-2.618-12.284-5.04-18.582-7.255c-2.03-0.715-4.083-1.407-6.136-2.076L303.81,308.284z"/>
</g>
<g>
</g>
<g>
</g>
<g>
</g>
<g>
</g>
<g>
</g>
<g>
</g>
<g>
</g>
<g>
</g>
<g>
</g>
<g>
</g>
<g>
</g>
<g>
</g>
<g>
</g>
<g>
</g>
<g>
</g>
</svg>
